<svg id="图层_1" data-name="图层 1" xmlns="http://www.w3.org/2000/svg" viewBox="0 0 648 168"><defs><style>.cls-1,.cls-3{fill:#fff;}.cls-2{opacity:0.25;}.cls-3{font-size:68px;font-family:FZLTHK--GBK1-0, FZLanTingHei-R-GBK;}</style></defs><title>按钮02</title><path class="cls-1" d="M153.86,127.18a3.5,3.5,0,0,1,0-7h39.67a3.5,3.5,0,1,1,0,7ZM109.5,41h30.7a3.53,3.53,0,0,1,3.53,3.53V75.2a3.5,3.5,0,0,1-3.53,3.48H109.5A3.48,3.48,0,0,1,106,75.2V44.53A3.5,3.5,0,0,1,109.5,41Zm27.22,7H113V71.67h23.72V48ZM109.5,94.32h30.7a3.55,3.55,0,0,1,3.53,3.5v30.75A3.49,3.49,0,0,1,140.2,132H109.5a3.47,3.47,0,0,1-3.5-3.43V97.83a3.53,3.53,0,0,1,3.5-3.5Zm27.22,7H113V125h23.72V101.33Zm17.14-48.46h0a3.5,3.5,0,0,1-3.48-3.53,3.46,3.46,0,0,1,3.48-3.48h39.67a3.5,3.5,0,0,1,3.53,3.48,3.54,3.54,0,0,1-3.53,3.53Zm0,21h0a3.52,3.52,0,0,1-3.48-3.55,3.47,3.47,0,0,1,3.48-3.48h39.67a3.52,3.52,0,0,1,3.53,3.48,3.56,3.56,0,0,1-3.53,3.55Zm0,32.31h0a3.52,3.52,0,0,1-3.48-3.53,3.46,3.46,0,0,1,3.48-3.48h39.67a3.5,3.5,0,0,1,3.53,3.48,3.56,3.56,0,0,1-3.53,3.53Z"/><g class="cls-2"><rect class="cls-1" x="1" y="1" width="646" height="166" rx="70" ry="70"/><path class="cls-1" d="M577,2a69.21,69.21,0,0,1,69,69V97a69.21,69.21,0,0,1-69,69H71A69.21,69.21,0,0,1,2,97V71A69.21,69.21,0,0,1,71,2H577m0-2H71A71.21,71.21,0,0,0,0,71V97a71.21,71.21,0,0,0,71,71H577a71.21,71.21,0,0,0,71-71V71A71.21,71.21,0,0,0,577,0Z"/></g><text class="cls-3" transform="translate(268.28 105.57)">投诉列表</text></svg>