<svg id="图层_1" data-name="图层 1" xmlns="http://www.w3.org/2000/svg" viewBox="0 0 648 168"><defs><style>.cls-1{fill:#f7b208;}.cls-2,.cls-3,.cls-4,.cls-5,.cls-6{fill:none;}.cls-2,.cls-5,.cls-6{stroke:#fb69ff;}.cls-2,.cls-4,.cls-5,.cls-6{stroke-miterlimit:10;}.cls-2,.cls-3{stroke-width:8px;}.cls-3,.cls-4{stroke:#fff;}.cls-3,.cls-4,.cls-5{stroke-linecap:round;}.cls-3{stroke-linejoin:round;}.cls-4,.cls-5,.cls-6{stroke-width:5px;}.cls-7,.cls-8{fill:#fff;}.cls-8{font-size:72px;font-family:FZLTHK--GBK1-0, FZLanTingHei-R-GBK;}</style></defs><title>按钮01</title><rect class="cls-1" width="648" height="168" rx="71" ry="71"/><path class="cls-2" d="M100.49,119.16"/><path class="cls-3" d="M106.33,125.67C95.93,115.28,89,97.23,89,84.09c0-32.53,26.18-58.91,58.47-58.91s58.47,26.37,58.47,58.91S179.77,143,147.47,143a58.21,58.21,0,0,1-13.87-1.67"/><path class="cls-4" d="M116.29,61.14c4.33-9.53,17.33-16.46,25-15.33"/><path class="cls-5" d="M116.18,63.2"/><path class="cls-5" d="M116.33,63.3"/><path class="cls-5" d="M118.06,61.57"/><path class="cls-5" d="M110.9,76.75"/><path class="cls-4" d="M181.67,71c1.89,4.49,2.94,7.7,2.94,12.89a37.19,37.19,0,1,1-74.38,0,37.93,37.93,0,0,1,.67-7.13"/><path class="cls-5" d="M182.53,71.85"/><path class="cls-6" d="M147.41,46.41"/><circle class="cls-7" cx="159.17" cy="63.3" r="14.73"/><text class="cls-8" transform="translate(268.28 112.01)">随手拍</text></svg>